<svg xmlns="http://www.w3.org/2000/svg" xmlns:xlink="http://www.w3.org/1999/xlink" aria-hidden="true" role="img" class="iconify iconify--logos" width="31.88" height="32" preserveAspectRatio="xMidYMid meet" viewBox="0 0 256 257"><defs><linearGradient id="IconifyId1813088fe1fbc01fb466" x1="-.828%" x2="57.636%" y1="7.652%" y2="78.411%"><stop offset="0%" stop-color="#41D1FF"></stop><stop offset="100%" stop-color="#BD34FE"></stop></linearGradient><linearGradient id="IconifyId1813088fe1fbc01fb467" x1="43.376%" x2="50.316%" y1="2.242%" y2="89.03%"><stop offset="0%" stop-color="#FFEA83"></stop><stop offset="8.333%" stop-color="#FFDD35"></stop><stop offset="100%" stop-color="#FFA800"></stop></linearGradient></defs><path fill="url(#IconifyId1813088fe1fbc01fb466)" d="M255.153 37.938v134.175h-65.661V75.588c0-18.475-13.896-34.247-32.444-34.247h-65.66v133.772H25.848v-197.23h131.3c18.548 0 33.944 15.471 33.944 34.247v22.15Z"></path><path fill="url(#IconifyId1813088fe1fbc01fb467)" d="M255.153 172.113v56.88c0 18.75-15.298 34.028-33.944 34.028H25.848v-90.908h65.66c18.548 0 32.444-15.471 32.444-34.247v-56.88h65.66c18.548 0 33.944 15.471 33.944 34.247v56.88Z"></path></svg>
